<?xml version="1.0" encoding="UTF-8"?>
<svg width="44px" height="39px" viewBox="0 0 44 39" version="1.1" xmlns="http://www.w3.org/2000/svg" xmlns:xlink="http://www.w3.org/1999/xlink">
    <!-- Generator: Sketch 42 (36781) - http://www.bohemiancoding.com/sketch -->
    <title>heart-filled copy</title>
    <desc>Created with Sketch.</desc>
    <defs></defs>
    <g id="Page-1" stroke="none" stroke-width="1" fill="none" fill-rule="evenodd" fill-opacity="0.799999952">
        <g id="Artboard-2" transform="translate(-302.000000, -311.000000)" fill="#000000">
            <g id="content-frame">
                <g id="heart-filled-copy" transform="translate(302.819892, 311.752688)">
                    <path d="M12.1205837,0 L15.1507296,0 L15.1507296,3.12410394 L12.1205837,3.12410394 L12.1205837,0 Z M9.09043779,0 L12.1205837,0 L12.1205837,3.12410394 L9.09043779,3.12410394 L9.09043779,0 Z M6.06029186,0 L9.09043779,0 L9.09043779,3.12410394 L6.06029186,3.12410394 L6.06029186,0 Z M3.03014593,3.12410394 L6.06029186,3.12410394 L6.06029186,6.24820789 L3.03014593,6.24820789 L3.03014593,3.12410394 Z M0,6.24820789 L3.03014593,6.24820789 L3.03014593,9.37231183 L0,9.37231183 L0,6.24820789 Z M0,9.37231183 L3.03014593,9.37231183 L3.03014593,12.4964158 L0,12.4964158 L0,9.37231183 Z M0,12.4964158 L3.03014593,12.4964158 L3.03014593,15.6205197 L0,15.6205197 L0,12.4964158 Z M0,15.6205197 L3.03014593,15.6205197 L3.03014593,18.7446237 L0,18.7446237 L0,15.6205197 Z M3.03014593,18.7446237 L6.06029186,18.7446237 L6.06029186,21.8687276 L3.03014593,21.8687276 L3.03014593,18.7446237 Z M6.06029186,21.8687276 L9.09043779,21.8687276 L9.09043779,24.9928315 L6.06029186,24.9928315 L6.06029186,21.8687276 Z M9.09043779,24.9928315 L12.1205837,24.9928315 L12.1205837,28.1169355 L9.09043779,28.1169355 L9.09043779,24.9928315 Z M12.1205837,28.1169355 L15.1507296,28.1169355 L15.1507296,31.2410394 L12.1205837,31.2410394 L12.1205837,28.1169355 Z M15.1507296,31.2410394 L18.1808756,31.2410394 L18.1808756,34.3651434 L15.1507296,34.3651434 L15.1507296,31.2410394 Z M18.1808756,34.3651434 L21.2110215,34.3651434 L21.2110215,37.4892473 L18.1808756,37.4892473 L18.1808756,34.3651434 Z M21.2110215,34.3651434 L24.2411674,34.3651434 L24.2411674,37.4892473 L21.2110215,37.4892473 L21.2110215,34.3651434 Z M24.2411674,31.2410394 L27.2713134,31.2410394 L27.2713134,34.3651434 L24.2411674,34.3651434 L24.2411674,31.2410394 Z M27.2713134,28.1169355 L30.3014593,28.1169355 L30.3014593,31.2410394 L27.2713134,31.2410394 L27.2713134,28.1169355 Z M30.3014593,24.9928315 L33.3316052,24.9928315 L33.3316052,28.1169355 L30.3014593,28.1169355 L30.3014593,24.9928315 Z M33.3316052,21.8687276 L36.3617512,21.8687276 L36.3617512,24.9928315 L33.3316052,24.9928315 L33.3316052,21.8687276 Z M36.3617512,18.7446237 L39.3918971,18.7446237 L39.3918971,21.8687276 L36.3617512,21.8687276 L36.3617512,18.7446237 Z M39.3918971,15.6205197 L42.422043,15.6205197 L42.422043,18.7446237 L39.3918971,18.7446237 L39.3918971,15.6205197 Z M39.3918971,12.4964158 L42.422043,12.4964158 L42.422043,15.6205197 L39.3918971,15.6205197 L39.3918971,12.4964158 Z M39.3918971,9.37231183 L42.422043,9.37231183 L42.422043,12.4964158 L39.3918971,12.4964158 L39.3918971,9.37231183 Z M39.3918971,6.24820789 L42.422043,6.24820789 L42.422043,9.37231183 L39.3918971,9.37231183 L39.3918971,6.24820789 Z M36.3617512,3.12410394 L39.3918971,3.12410394 L39.3918971,6.24820789 L36.3617512,6.24820789 L36.3617512,3.12410394 Z M33.3316052,0 L36.3617512,0 L36.3617512,3.12410394 L33.3316052,3.12410394 L33.3316052,0 Z M30.3014593,0 L33.3316052,0 L33.3316052,3.12410394 L30.3014593,3.12410394 L30.3014593,0 Z M27.2713134,0 L30.3014593,0 L30.3014593,3.12410394 L27.2713134,3.12410394 L27.2713134,0 Z M24.2411674,3.12410394 L27.2713134,3.12410394 L27.2713134,6.24820789 L24.2411674,6.24820789 L24.2411674,3.12410394 Z M21.2110215,6.24820789 L24.2411674,6.24820789 L24.2411674,9.37231183 L21.2110215,9.37231183 L21.2110215,6.24820789 Z M18.1808756,6.24820789 L21.2110215,6.24820789 L21.2110215,9.37231183 L18.1808756,9.37231183 L18.1808756,6.24820789 Z M15.1507296,3.12410394 L18.1808756,3.12410394 L18.1808756,6.24820789 L15.1507296,6.24820789 L15.1507296,3.12410394 Z" id="outline"></path>
                </g>
            </g>
        </g>
    </g>
</svg>