<?xml version="1.0" encoding="UTF-8"?>
<svg width="224px" height="33px" viewBox="0 0 224 33" version="1.1" xmlns="http://www.w3.org/2000/svg" xmlns:xlink="http://www.w3.org/1999/xlink">
    <!-- Generator: Sketch 42 (36781) - http://www.bohemiancoding.com/sketch -->
    <title>click the ads!!</title>
    <desc>Created with Sketch.</desc>
    <defs></defs>
    <g id="Page-1" stroke="none" stroke-width="1" fill="none" fill-rule="evenodd">
        <g id="Desktop" transform="translate(-106.000000, -144.000000)" stroke="#363636">
            <g id="mockup" transform="translate(90.000000, 80.000000)">
                <path d="M34.1209655,88.9837241 L34.813931,89.7633103 C33.7456039,91.6112276 32.4102149,93.0982013 30.8077241,94.2242759 C29.2052334,95.3503505 27.4800552,95.9133793 25.6321379,95.9133793 C23.0335042,95.9133793 20.9618468,95.0399628 19.4171034,93.2931034 C17.8723601,91.5462441 17.1,89.185854 17.1,86.2118621 C17.1,84.4505659 17.4609159,82.7037328 18.1827586,80.9713103 C18.9046013,79.2388879 19.8285461,77.7952242 20.9546207,76.6402759 C21.9363267,76.1494228 22.961328,75.7740703 24.0296552,75.5142069 C25.0979824,75.2543435 26.1229836,75.1244138 27.1046897,75.1244138 C28.8082384,75.1244138 30.3240853,75.5863862 31.6522759,76.5103448 C32.9804664,77.4343035 34.0487776,78.7769107 34.8572414,80.5382069 L29.8765517,83.44 C29.4145724,82.1406832 28.793797,80.8269492 28.0142069,79.4987586 C27.2346168,78.1705681 26.5560948,77.2610599 25.9786207,76.7702069 C25.2279043,77.4920496 24.5854739,78.5387058 24.0513103,79.9102069 C23.5171468,81.281708 23.250069,82.6892801 23.250069,84.1329655 C23.250069,86.356241 23.7409146,88.0453276 24.7226207,89.2002759 C25.7043267,90.3552242 27.0902439,90.9326897 28.8804138,90.9326897 C30.6705837,90.9326897 32.4174168,90.283041 34.1209655,88.9837241 Z M34.9005517,94.0077241 L36.5030345,93.8777931 L36.2864828,67.9348966 L34.6406897,68.2813793 L34.2075862,67.0253793 L42.22,64.6 L42.8263448,65.6394483 L42.6097931,93.8777931 L44.2122759,94.0077241 L44.2122759,95.2637241 L34.9005517,95.2637241 L34.9005517,94.0077241 Z M47.4605518,66.6355862 L53.0042759,65.3795862 L53.0042759,70.3169655 L47.4605518,71.1398621 L47.4605518,66.6355862 Z M53.4373794,93.8777931 L55.0398621,94.0077241 L55.0398621,95.2637241 L45.728138,95.2637241 L45.728138,94.0077241 L47.3306207,93.8777931 L47.2006897,78.4593103 L45.5548966,78.8057931 L45.1217931,77.5497931 L52.9609656,75.1244138 L53.5673104,76.1638621 L53.4373794,93.8777931 Z M73.230207,88.9837241 L73.9231725,89.7633103 C72.8548453,91.6112276 71.5194564,93.0982013 69.9169656,94.2242759 C68.3144748,95.3503505 66.5892967,95.9133793 64.7413794,95.9133793 C62.1427457,95.9133793 60.0710882,95.0399628 58.5263449,93.2931034 C56.9816015,91.5462441 56.2092414,89.185854 56.2092414,86.2118621 C56.2092414,84.4505659 56.5701574,82.7037328 57.2920001,80.9713103 C58.0138428,79.2388879 58.9377875,77.7952242 60.0638621,76.6402759 C61.0455682,76.1494228 62.0705694,75.7740703 63.1388966,75.5142069 C64.2072238,75.2543435 65.232225,75.1244138 66.2139311,75.1244138 C67.9174798,75.1244138 69.4333268,75.5863862 70.7615173,76.5103448 C72.0897079,77.4343035 73.158019,78.7769107 73.9664828,80.5382069 L68.9857932,83.44 C68.5238138,82.1406832 67.9030384,80.8269492 67.1234483,79.4987586 C66.3438582,78.1705681 65.6653363,77.2610599 65.0878621,76.7702069 C64.3371457,77.4920496 63.6947154,78.5387058 63.1605518,79.9102069 C62.6263882,81.281708 62.3593104,82.6892801 62.3593104,84.1329655 C62.3593104,86.356241 62.8501561,88.0453276 63.8318621,89.2002759 C64.8135682,90.3552242 66.1994854,90.9326897 67.9896552,90.9326897 C69.7798251,90.9326897 71.5266582,90.283041 73.230207,88.9837241 Z M96.0114484,92.232 L89.9480001,95.7834483 C88.1289565,94.3108892 86.6419829,92.0299005 85.4870346,88.9404138 L85.0106208,87.5977931 L82.1954484,88.8104828 L82.152138,93.8777931 L83.7546208,94.0077241 L83.7546208,95.2637241 L74.4428966,95.2637241 L74.4428966,94.0077241 L76.0453794,93.8777931 L75.8288277,67.9348966 L74.1830346,68.2813793 L73.7499311,67.0253793 L81.7623449,64.6 L82.3686897,65.6394483 L82.2387587,81.8375172 L87.9990346,74.9944828 C90.0201941,75.5719569 91.5143861,76.5825215 92.4816553,78.0262069 C93.4489245,79.4698923 93.9325518,81.389965 93.9325518,83.7864828 L89.9913104,85.4755862 L90.2511725,85.9953103 C90.7131518,87.0925112 91.3339272,88.1608224 92.1135173,89.2002759 C92.8931074,90.2397293 93.6438126,91.0337444 94.3656553,91.5823448 L95.5350346,90.9326897 L96.0114484,92.232 Z M82.1954484,87.208 L88.0423449,84.4361379 C88.0423449,83.8009164 87.8041404,83.1079578 87.3277242,82.3572414 C86.851308,81.606525 86.2810609,81.1445526 85.6169656,80.9713103 L82.2387587,83.9164138 L82.1954484,87.208 Z M116.800414,91.8422069 L111.516552,95.6535172 C109.379897,95.6535172 107.827959,95.12658 106.86069,94.0726897 C105.893421,93.0187993 105.409793,91.3224945 105.409793,88.9837241 L105.409793,77.4631724 L102.508,77.4631724 L102.508,76.0772414 C103.720696,75.4131461 105.041648,74.4675464 106.470897,73.2404138 C107.900145,72.0132812 109.206661,70.7212022 110.390483,69.3641379 L111.819724,69.7972414 L111.603173,75.774069 L116.670483,75.774069 L116.670483,77.5931034 L111.516552,77.5064828 L111.516552,87.4678621 C111.516552,88.8538 111.78363,89.8643646 112.317793,90.4995862 C112.851957,91.1348078 113.56657,91.4524138 114.461655,91.4524138 L116.064138,90.5428966 L116.800414,91.8422069 Z M137.849242,94.0077241 L137.849242,95.2637241 L128.580828,95.2637241 L128.580828,94.0077241 L130.18331,93.8777931 L130.18331,84.7393103 C130.18331,83.4688672 129.829613,82.4871759 129.122207,81.7942069 C128.414801,81.1012379 127.440328,80.740322 126.198759,80.7114483 L124.769517,82.1406897 L124.682897,93.8777931 L126.285379,94.0077241 L126.285379,95.2637241 L116.973655,95.2637241 L116.973655,94.0077241 L118.576138,93.8777931 L118.359586,67.9348966 L116.713793,68.2813793 L116.28069,67.0253793 L124.293104,64.6 L124.899448,65.6394483 L124.769517,80.0617931 L128.277655,75.0377931 C131.020658,75.0377931 133.041787,75.6874418 134.341104,76.9867586 C135.64042,78.2860755 136.290069,80.292768 136.290069,83.0068966 L136.290069,93.8777931 L137.849242,94.0077241 Z M154.58869,77.8746207 C156.046812,79.7081011 156.761426,82.1839844 156.732552,85.3023448 L144.778897,85.6921379 C144.981013,87.3956867 145.572915,88.694984 146.554621,89.590069 C147.536327,90.4851539 148.835624,90.9326897 150.452552,90.9326897 C152.704701,90.9326897 154.538154,90.3119143 155.952966,89.0703448 L156.732552,89.7633103 C155.721972,91.6978488 154.35771,93.2064773 152.639724,94.2892414 C150.921739,95.3720054 149.095504,95.9133793 147.160966,95.9133793 C144.533458,95.9133793 142.447364,95.0399628 140.902621,93.2931034 C139.357877,91.5462441 138.585517,89.185854 138.585517,86.2118621 C138.585517,84.4505659 138.939215,82.7037328 139.646621,80.9713103 C140.354027,79.2388879 141.256317,77.7952242 142.353517,76.6402759 C143.104234,76.2071702 144.071488,75.8462543 145.255311,75.5575172 C146.439133,75.2687802 147.550754,75.1244138 148.590207,75.1244138 C151.131093,75.1244138 153.130568,76.0411403 154.58869,77.8746207 Z M150.322621,83.8731034 C150.293747,81.8519439 150.005014,80.2494772 149.456414,79.0656552 C148.907814,77.8818332 148.128235,77.1744379 147.117655,76.9434483 C146.395813,77.6941647 145.811129,78.7408209 145.363586,80.0834483 C144.916044,81.4260757 144.692276,82.8047745 144.692276,84.2195862 L144.692276,84.3495172 L150.322621,83.8731034 Z M181.939173,93.0115862 L175.572552,96 C174.792962,95.4513996 174.258806,94.7006944 173.970069,93.7478621 C172.930616,94.3830836 171.883959,94.9028026 170.830069,95.3070345 C169.776179,95.7112664 168.859452,95.9133793 168.079862,95.9133793 C166.89604,95.9133793 165.928786,95.4947168 165.178069,94.6573793 C164.427353,93.8200418 164.052,92.7517306 164.052,91.4524138 C164.052,90.8749396 164.116965,90.2469459 164.246897,89.5684138 C164.376828,88.8898817 164.54285,88.3485078 164.744966,87.9442759 L173.926759,86.4717241 L174.01338,85.2157241 C174.071127,83.9164073 173.796831,82.8986244 173.190483,82.1623448 C172.584135,81.4260653 171.602444,81.057931 170.24538,81.057931 C169.639032,81.057931 169.00382,81.1228959 168.339724,81.2528276 C167.675629,81.3827593 167.1126,81.5487806 166.650621,81.7508966 L165.957655,83.2234483 L164.788276,82.7903448 L166.780552,76.5536552 C169.003827,75.6008228 171.111576,75.1244138 173.103862,75.1244138 C175.153896,75.1244138 176.828545,75.6657877 178.127862,76.7485517 C179.427179,77.8313158 180.076828,79.5276206 180.076828,81.8375172 L180.033517,82.7037241 L179.600414,88.5506207 L179.513793,90.1097931 C179.513793,90.6295198 179.557103,91.040964 179.643724,91.3441379 C179.730345,91.6473119 179.874712,91.9576996 180.076828,92.2753103 L181.419448,91.7555862 L181.939173,93.0115862 Z M173.710207,92.2753103 L173.666897,91.3657931 L173.710207,90.4129655 L173.840138,87.9442759 L170.505242,88.7238621 C170.389747,89.0992203 170.332,89.6045026 170.332,90.2397241 C170.332,91.1059354 170.50524,91.7483657 170.851724,92.1670345 C171.198209,92.5857032 171.616871,92.7950345 172.107724,92.7950345 C172.569704,92.7950345 173.103859,92.6217948 173.710207,92.2753103 Z M203.810897,92.2753103 L197.487586,95.6968276 C196.707996,95.2348483 196.137749,94.6212912 195.776828,93.8561379 C195.415906,93.0909847 195.206575,92.102075 195.148828,90.8893793 L190.861104,95.9133793 C189.186429,95.9133793 187.706673,95.5308084 186.421793,94.7656552 C185.136913,94.0005019 184.133567,92.9466274 183.411724,91.604 C182.689882,90.2613726 182.328966,88.7383074 182.328966,87.0347586 C182.328966,85.5621995 182.574389,84.0030427 183.065242,82.3572414 C183.556095,80.71144 184.147997,79.4265793 184.840966,78.5026207 C185.389566,77.7230306 186.385694,76.9651071 187.82938,76.2288276 C189.273065,75.492548 190.485742,75.1244138 191.467449,75.1244138 C192.33366,75.1244138 193.517464,75.2687802 195.018897,75.5575172 L194.932276,67.9348966 L193.286483,68.2813793 L192.85338,67.0253793 L200.865793,64.6 L201.472138,65.6394483 L201.212276,88.0742069 C201.212276,89.1136604 201.270023,89.8860205 201.385517,90.3913103 C201.501012,90.8966002 201.703125,91.3369177 201.991862,91.7122759 L203.291173,91.105931 L203.810897,92.2753103 Z M189.215311,87.9009655 C189.648416,88.8826716 190.218663,89.6333767 190.926069,90.1531034 C191.633475,90.6728302 192.391398,90.9326897 193.199862,90.9326897 L195.148828,88.9837241 L195.062207,80.2350345 C193.185416,79.3399495 191.380836,78.7336108 189.648414,78.416 C188.926571,80.0618013 188.565655,82.0684939 188.565655,84.4361379 C188.565655,85.7643285 188.782205,86.9192595 189.215311,87.9009655 Z M211.715035,81.1445517 C212.335819,81.7797733 213.281419,82.5304784 214.551862,83.3966897 C216.111043,84.4650168 217.294847,85.4322715 218.103311,86.2984828 C218.911774,87.164694 219.316,88.2330051 219.316,89.5034483 C219.316,90.6295229 218.983958,91.6833974 218.319862,92.6651034 C217.655767,93.6468095 216.717386,94.4336062 215.50469,95.0255172 C214.291994,95.6174282 212.906077,95.9133793 211.346897,95.9133793 C209.845464,95.9133793 208.423455,95.5524634 207.080828,94.8306207 C205.7382,94.108778 204.749291,93.1848332 204.114069,92.0587586 L207.838759,89.0703448 C208.993707,91.2358729 210.177511,93.0115793 211.390207,94.3975172 C211.88106,94.022159 212.292504,93.5818416 212.624552,93.0765517 C212.9566,92.5712618 213.122621,92.0731979 213.122621,91.5823448 C213.122621,90.773881 212.82667,90.0737041 212.234759,89.4817931 C211.642848,88.8898821 210.726121,88.1752686 209.484552,87.337931 C208.473972,86.6738358 207.665521,86.0963703 207.059173,85.6055172 C206.452825,85.1146642 205.940324,84.5227621 205.521655,83.8297931 C205.102987,83.1368241 204.893655,82.3572457 204.893655,81.4910345 C204.893655,80.4227073 205.247353,79.3977061 205.954759,78.416 C206.662165,77.4342939 207.651074,76.6402789 208.921517,76.033931 C210.191961,75.4275832 211.635624,75.1244138 213.252552,75.1244138 C214.494121,75.1244138 215.670707,75.3914916 216.782345,75.9256552 C217.893983,76.4598188 218.796273,77.1311224 219.489242,77.9395862 L216.111035,81.2744828 C214.725097,79.5131866 213.194813,77.9395931 211.520138,76.5536552 C211.029285,77.1888767 210.783862,78.0117651 210.783862,79.0223448 C210.783862,79.8019349 211.09425,80.5093302 211.715035,81.1445517 Z M221.178345,68.1081379 L228.800966,65.726069 L227.285104,84.0896552 L222.391035,85.0424828 L221.178345,68.1081379 Z M221.828,90.0664828 L228.151311,88.6372414 L228.151311,94.7873103 L221.828,95.7401379 L221.828,90.0664828 Z M231.486207,68.1081379 L239.108828,65.726069 L237.592966,84.0896552 L232.698897,85.0424828 L231.486207,68.1081379 Z M232.135862,90.0664828 L238.459173,88.6372414 L238.459173,94.7873103 L232.135862,95.7401379 L232.135862,90.0664828 Z" id="click-the-ads!!"></path>
            </g>
        </g>
    </g>
</svg>