<?xml version="1.0" encoding="UTF-8"?>
<svg width="431px" height="39px" viewBox="0 0 431 39" version="1.1" xmlns="http://www.w3.org/2000/svg" xmlns:xlink="http://www.w3.org/1999/xlink">
    <!-- Generator: Sketch 42 (36781) - http://www.bohemiancoding.com/sketch -->
    <title>Artboard</title>
    <desc>Created with Sketch.</desc>
    <defs></defs>
    <g id="Page-1" stroke="none" stroke-width="1" fill="none" fill-rule="evenodd">
        <g id="Artboard" stroke="#000000">
            <path d="M5.421875,29.3125 C6.1875,29.3125 7.265625,29.15625 7.96875,29 L7.96875,26.21875 C7.578125,26.28125 7.078125,26.328125 6.84375,26.328125 C5.96875,26.328125 5.671875,25.78125 5.671875,25.328125 L5.671875,6.921875 L2.3125,6.921875 L2.3125,25.875 C2.3125,28.390625 3.390625,29.3125 5.421875,29.3125 Z M12.0733335,10.28125 L15.6670835,10.28125 L15.6670835,6.921875 L12.0733335,6.921875 L12.0733335,10.28125 Z M12.1827085,29 L15.5264585,29 L15.5264585,13.390625 L12.1827085,13.390625 L12.1827085,29 Z M21.412292,29 L24.771667,29 L24.771667,24.421875 L27.459167,21.4375 L32.099792,29 L36.068542,29 L29.693542,19.34375 L35.302917,13.390625 L30.990417,13.390625 L24.771667,20.484375 L24.771667,6.921875 L21.412292,6.921875 L21.412292,29 Z M45.8137505,29.1875 C40.7512505,29.1875 38.2668755,25.46875 38.2668755,21.28125 C38.2668755,17.15625 40.6418755,13.1875 45.5325005,13.1875 C51.0481255,13.1875 52.6731255,17.203125 52.6731255,21.296875 C52.6731255,21.84375 52.5637505,22.296875 52.5637505,22.296875 L41.7981255,22.296875 C41.9700005,24.484375 43.2825005,26.109375 45.7825005,26.109375 C47.5325005,26.109375 48.7043755,25.796875 49.8450005,24.609375 L52.1575005,26.59375 C50.3606255,28.46875 48.3762505,29.1875 45.8137505,29.1875 Z M41.7981255,19.8125 L49.4075005,19.8125 C49.2356255,17.46875 48.0325005,16.046875 45.5325005,16.046875 C43.2043755,16.046875 42.0481255,17.6875 41.7981255,19.8125 Z M72.1010425,29.3125 C73.1479175,29.3125 74.1947925,29.09375 74.6947925,28.890625 L74.6947925,25.890625 C74.1947925,26.140625 73.4291675,26.40625 72.7104175,26.40625 C71.6791675,26.40625 70.7885425,25.84375 70.7885425,24.28125 L70.7885425,16.375 L74.8197925,16.375 L74.8197925,13.390625 L70.7885425,13.390625 L70.7885425,7.078125 L67.6010425,9.625 L67.6010425,13.390625 L65.0385425,13.390625 L65.0385425,16.375 L67.5541675,16.375 L67.5541675,24.734375 C67.5541675,27.53125 69.1322925,29.3125 72.1010425,29.3125 Z M79.471251,29 L82.846251,29 L82.846251,20.453125 C82.846251,18.25 84.721251,16.25 87.002501,16.25 C89.190001,16.25 89.736876,18.015625 89.736876,19.984375 L89.736876,29 L93.143126,29 L93.143126,19.546875 C93.143126,16.265625 91.518126,13.125 87.533751,13.125 C85.846251,13.125 84.033751,13.84375 82.846251,15.4375 L82.846251,6.921875 L79.471251,6.921875 L79.471251,29 Z M104.763335,29.1875 C99.7008345,29.1875 97.2164595,25.46875 97.2164595,21.28125 C97.2164595,17.15625 99.5914595,13.1875 104.482085,13.1875 C109.99771,13.1875 111.62271,17.203125 111.62271,21.296875 C111.62271,21.84375 111.513335,22.296875 111.513335,22.296875 L100.74771,22.296875 C100.919585,24.484375 102.232085,26.109375 104.732085,26.109375 C106.482085,26.109375 107.65396,25.796875 108.794585,24.609375 L111.107085,26.59375 C109.31021,28.46875 107.325835,29.1875 104.763335,29.1875 Z M100.74771,19.8125 L108.357085,19.8125 C108.18521,17.46875 106.982085,16.046875 104.482085,16.046875 C102.15396,16.046875 100.99771,17.6875 100.74771,19.8125 Z M130.550627,29.3125 C133.425627,29.3125 136.410002,27.71875 136.410002,24.203125 C136.410002,18.421875 128.285002,20.15625 128.285002,17.40625 C128.285002,16.5 129.144377,15.84375 130.535002,15.84375 C132.206877,15.84375 133.128752,16.765625 133.706877,17.796875 L136.316252,16.375 C135.222502,14.421875 133.253752,13.15625 130.644377,13.15625 C127.738127,13.15625 125.113127,14.703125 125.113127,17.859375 C125.113127,23.375 133.128752,21.359375 133.128752,24.4375 C133.128752,25.5625 132.113127,26.484375 130.441252,26.484375 C128.394377,26.484375 127.378752,25.125 126.925627,23.859375 L124.222502,25.09375 C124.972502,27.375 127.363127,29.3125 130.550627,29.3125 Z M146.15521,29.3125 C147.202085,29.3125 148.24896,29.09375 148.74896,28.890625 L148.74896,25.890625 C148.24896,26.140625 147.483335,26.40625 146.764585,26.40625 C145.733335,26.40625 144.84271,25.84375 144.84271,24.28125 L144.84271,16.375 L148.87396,16.375 L148.87396,13.390625 L144.84271,13.390625 L144.84271,7.078125 L141.65521,9.625 L141.65521,13.390625 L139.09271,13.390625 L139.09271,16.375 L141.608335,16.375 L141.608335,24.734375 C141.608335,27.53125 143.18646,29.3125 146.15521,29.3125 Z M158.728544,29.359375 C160.650419,29.359375 162.384794,28.359375 163.353544,26.921875 L163.353544,29 L166.744169,29 L166.744169,13.390625 L163.353544,13.390625 L163.353544,21.40625 C163.353544,24.984375 161.431669,26.234375 159.416044,26.234375 C156.994169,26.234375 156.462919,24.46875 156.462919,22.484375 L156.462919,13.390625 L153.056669,13.390625 L153.056669,22.59375 C153.056669,26.0625 154.697294,29.359375 158.728544,29.359375 Z M173.442502,29 L176.880002,29 L176.880002,16.1875 L180.786252,16.1875 L180.786252,13.390625 L176.880002,13.390625 L176.880002,11.125 C176.880002,10.1875 177.598752,9.609375 178.583127,9.609375 C179.380002,9.609375 179.926877,9.953125 179.926877,9.953125 L180.958127,7.21875 C180.161252,6.84375 179.192502,6.59375 178.255002,6.59375 C175.676877,6.59375 173.473752,8.171875 173.473752,11.0625 L173.473752,13.421875 L170.598752,13.421875 L170.598752,16.1875 L173.442502,16.1875 L173.442502,29 Z M185.265836,29 L188.703336,29 L188.703336,16.1875 L192.609586,16.1875 L192.609586,13.390625 L188.703336,13.390625 L188.703336,11.125 C188.703336,10.1875 189.422086,9.609375 190.406461,9.609375 C191.203336,9.609375 191.750211,9.953125 191.750211,9.953125 L192.781461,7.21875 C191.984586,6.84375 191.015836,6.59375 190.078336,6.59375 C187.500211,6.59375 185.297086,8.171875 185.297086,11.0625 L185.297086,13.421875 L182.422086,13.421875 L182.422086,16.1875 L185.265836,16.1875 L185.265836,29 Z M196.417294,32.515625 L198.620419,32.515625 L201.964169,24.875 L197.995419,24.875 L196.417294,32.515625 Z M219.938961,29.3125 C220.704586,29.3125 221.782711,29.15625 222.485836,29 L222.485836,26.21875 C222.095211,26.28125 221.595211,26.328125 221.360836,26.328125 C220.485836,26.328125 220.188961,25.78125 220.188961,25.328125 L220.188961,6.921875 L216.829586,6.921875 L216.829586,25.875 C216.829586,28.390625 217.907711,29.3125 219.938961,29.3125 Z M233.106045,29.3125 C228.40292,29.3125 225.293545,25.6875 225.293545,21.25 C225.293545,16.828125 228.40292,13.1875 233.106045,13.1875 C237.793545,13.1875 240.918545,16.828125 240.918545,21.25 C240.918545,25.6875 237.793545,29.3125 233.106045,29.3125 Z M233.106045,26.40625 C236.168545,26.40625 237.37167,23.984375 237.37167,21.25 C237.37167,18.515625 236.168545,16.109375 233.106045,16.109375 C230.043545,16.109375 228.84042,18.515625 228.84042,21.25 C228.84042,23.984375 230.043545,26.40625 233.106045,26.40625 Z M249.288753,29 L252.101253,29 L258.288753,13.390625 L254.679378,13.390625 L250.695003,24.65625 L246.757503,13.390625 L243.101253,13.390625 L249.288753,29 Z M268.065212,29.1875 C263.002712,29.1875 260.518337,25.46875 260.518337,21.28125 C260.518337,17.15625 262.893337,13.1875 267.783962,13.1875 C273.299587,13.1875 274.924587,17.203125 274.924587,21.296875 C274.924587,21.84375 274.815212,22.296875 274.815212,22.296875 L264.049587,22.296875 C264.221462,24.484375 265.533962,26.109375 268.033962,26.109375 C269.783962,26.109375 270.955837,25.796875 272.096462,24.609375 L274.408962,26.59375 C272.612087,28.46875 270.627712,29.1875 268.065212,29.1875 Z M264.049587,19.8125 L271.658962,19.8125 C271.487087,17.46875 270.283962,16.046875 267.783962,16.046875 C265.455837,16.046875 264.299587,17.6875 264.049587,19.8125 Z M294.352504,29.3125 C295.399379,29.3125 296.446254,29.09375 296.946254,28.890625 L296.946254,25.890625 C296.446254,26.140625 295.680629,26.40625 294.961879,26.40625 C293.930629,26.40625 293.040004,25.84375 293.040004,24.28125 L293.040004,16.375 L297.071254,16.375 L297.071254,13.390625 L293.040004,13.390625 L293.040004,7.078125 L289.852504,9.625 L289.852504,13.390625 L287.290004,13.390625 L287.290004,16.375 L289.805629,16.375 L289.805629,24.734375 C289.805629,27.53125 291.383754,29.3125 294.352504,29.3125 Z M301.722712,29 L305.097712,29 L305.097712,20.453125 C305.097712,18.25 306.972712,16.25 309.253962,16.25 C311.441462,16.25 311.988337,18.015625 311.988337,19.984375 L311.988337,29 L315.394587,29 L315.394587,19.546875 C315.394587,16.265625 313.769587,13.125 309.785212,13.125 C308.097712,13.125 306.285212,13.84375 305.097712,15.4375 L305.097712,6.921875 L301.722712,6.921875 L301.722712,29 Z M327.014796,29.1875 C321.952296,29.1875 319.467921,25.46875 319.467921,21.28125 C319.467921,17.15625 321.842921,13.1875 326.733546,13.1875 C332.249171,13.1875 333.874171,17.203125 333.874171,21.296875 C333.874171,21.84375 333.764796,22.296875 333.764796,22.296875 L322.999171,22.296875 C323.171046,24.484375 324.483546,26.109375 326.983546,26.109375 C328.733546,26.109375 329.905421,25.796875 331.046046,24.609375 L333.358546,26.59375 C331.561671,28.46875 329.577296,29.1875 327.014796,29.1875 Z M322.999171,19.8125 L330.608546,19.8125 C330.436671,17.46875 329.233546,16.046875 326.733546,16.046875 C324.405421,16.046875 323.249171,17.6875 322.999171,19.8125 Z M352.802088,29.3125 C355.677088,29.3125 358.661463,27.71875 358.661463,24.203125 C358.661463,18.421875 350.536463,20.15625 350.536463,17.40625 C350.536463,16.5 351.395838,15.84375 352.786463,15.84375 C354.458338,15.84375 355.380213,16.765625 355.958338,17.796875 L358.567713,16.375 C357.473963,14.421875 355.505213,13.15625 352.895838,13.15625 C349.989588,13.15625 347.364588,14.703125 347.364588,17.859375 C347.364588,23.375 355.380213,21.359375 355.380213,24.4375 C355.380213,25.5625 354.364588,26.484375 352.692713,26.484375 C350.645838,26.484375 349.630213,25.125 349.177088,23.859375 L346.473963,25.09375 C347.223963,27.375 349.614588,29.3125 352.802088,29.3125 Z M368.406671,29.3125 C369.453546,29.3125 370.500421,29.09375 371.000421,28.890625 L371.000421,25.890625 C370.500421,26.140625 369.734796,26.40625 369.016046,26.40625 C367.984796,26.40625 367.094171,25.84375 367.094171,24.28125 L367.094171,16.375 L371.125421,16.375 L371.125421,13.390625 L367.094171,13.390625 L367.094171,7.078125 L363.906671,9.625 L363.906671,13.390625 L361.344171,13.390625 L361.344171,16.375 L363.859796,16.375 L363.859796,24.734375 C363.859796,27.53125 365.437921,29.3125 368.406671,29.3125 Z M380.980005,29.359375 C382.90188,29.359375 384.636255,28.359375 385.605005,26.921875 L385.605005,29 L388.99563,29 L388.99563,13.390625 L385.605005,13.390625 L385.605005,21.40625 C385.605005,24.984375 383.68313,26.234375 381.667505,26.234375 C379.24563,26.234375 378.71438,24.46875 378.71438,22.484375 L378.71438,13.390625 L375.30813,13.390625 L375.30813,22.59375 C375.30813,26.0625 376.948755,29.359375 380.980005,29.359375 Z M395.693963,29 L399.131463,29 L399.131463,16.1875 L403.037713,16.1875 L403.037713,13.390625 L399.131463,13.390625 L399.131463,11.125 C399.131463,10.1875 399.850213,9.609375 400.834588,9.609375 C401.631463,9.609375 402.178338,9.953125 402.178338,9.953125 L403.209588,7.21875 C402.412713,6.84375 401.443963,6.59375 400.506463,6.59375 C397.928338,6.59375 395.725213,8.171875 395.725213,11.0625 L395.725213,13.421875 L392.850213,13.421875 L392.850213,16.1875 L395.693963,16.1875 L395.693963,29 Z M407.517297,29 L410.954797,29 L410.954797,16.1875 L414.861047,16.1875 L414.861047,13.390625 L410.954797,13.390625 L410.954797,11.125 C410.954797,10.1875 411.673547,9.609375 412.657922,9.609375 C413.454797,9.609375 414.001672,9.953125 414.001672,9.953125 L415.032922,7.21875 C414.236047,6.84375 413.267297,6.59375 412.329797,6.59375 C409.751672,6.59375 407.548547,8.171875 407.548547,11.0625 L407.548547,13.421875 L404.673547,13.421875 L404.673547,16.1875 L407.517297,16.1875 L407.517297,29 Z M419.80938,22.546875 L422.34063,22.546875 L422.793755,6.59375 L419.356255,6.59375 L419.80938,22.546875 Z M419.168755,29 L422.981255,29 L422.981255,25.21875 L419.168755,25.21875 L419.168755,29 Z" id="like-the-stuff,-love"></path>
        </g>
    </g>
</svg>