<?xml version="1.0" encoding="UTF-8"?>
<svg width="146px" height="27px" viewBox="0 0 146 27" version="1.1" xmlns="http://www.w3.org/2000/svg" xmlns:xlink="http://www.w3.org/1999/xlink">
    <!-- Generator: Sketch 43.1 (39012) - http://www.bohemiancoding.com/sketch -->
    <title>Artboard</title>
    <desc>Created with Sketch.</desc>
    <defs></defs>
    <g id="Page-1" stroke="none" stroke-width="1" fill="none" fill-rule="evenodd">
        <g id="Artboard" fill="#FFFFFF">
            <path d="M3.80273438,20.2148438 C4.32910156,20.2148438 5.14550781,20.1074219 5.69335938,20 L5.69335938,17.7978516 C5.4140625,17.8408203 5.10253906,17.8623047 5.03808594,17.8623047 C4.42578125,17.8623047 4.11425781,17.6474609 4.11425781,17.1425781 L4.11425781,4.82128906 L1.49316406,4.82128906 L1.49316406,17.8623047 C1.49316406,19.7851562 2.50292969,20.2148438 3.80273438,20.2148438 Z M8.721771,7.23828125 L11.471771,7.23828125 L11.471771,4.82128906 L8.721771,4.82128906 L8.721771,7.23828125 Z M8.78622413,20 L11.3858335,20 L11.3858335,9.26855469 L8.78622413,9.26855469 L8.78622413,20 Z M15.5958858,20 L18.2169795,20 L18.2169795,16.8525391 L19.8712764,15.0263672 L23.0187373,20 L26.1124873,20 L21.6544795,13.4257812 L25.6720576,9.26855469 L22.2667842,9.26855469 L18.2169795,13.7265625 L18.2169795,4.82128906 L15.5958858,4.82128906 L15.5958858,20 Z M33.0617974,20.1289062 C29.4739068,20.1289062 27.6907036,17.5615234 27.6907036,14.6933594 C27.6907036,11.8789062 29.3664849,9.12890625 32.868438,9.12890625 C36.7785943,9.12890625 37.9280083,11.9003906 37.9280083,14.671875 C37.9280083,15.1552734 37.8313286,15.4882812 37.8313286,15.4882812 L30.462188,15.4882812 C30.6448052,16.8095703 31.4826958,17.6904297 33.040313,17.6904297 C34.2112114,17.6904297 34.9524224,17.4970703 35.7258599,16.7021484 L37.5305474,18.28125 C36.2737114,19.6240234 34.8450005,20.1289062 33.0617974,20.1289062 Z M30.462188,13.5976562 L35.3498833,13.5976562 C35.1780083,12.1474609 34.4260552,11.3310547 32.868438,11.3310547 C31.4075005,11.3310547 30.6877739,12.2978516 30.462188,13.5976562 Z M52.0414722,20.2148438 C52.7826831,20.2148438 53.577605,20.0429688 53.9750659,19.8925781 L53.9750659,17.5185547 C53.6205738,17.6904297 53.0297534,17.9052734 52.4819019,17.9052734 C51.7944019,17.9052734 51.1820972,17.6044922 51.1820972,16.5732422 L51.1820972,11.6425781 L53.9750659,11.6425781 L53.9750659,9.26855469 L51.1820972,9.26855469 L51.1820972,4.73535156 L48.7221363,6.60449219 L48.7221363,9.26855469 L46.9389331,9.26855469 L46.9389331,11.6425781 L48.6684253,11.6425781 L48.6684253,17.0351562 C48.6684253,18.9902344 49.9252613,20.2148438 52.0414722,20.2148438 Z M57.4439073,20 L60.1079698,20 L60.1079698,14.1240234 C60.1079698,12.78125 61.3433213,11.5351562 62.7935166,11.5351562 C64.1577744,11.5351562 64.5122666,12.5664062 64.5122666,13.8876953 L64.5122666,20 L67.1763291,20 L67.1763291,13.5546875 C67.1763291,11.3095703 66.0269151,9.0859375 63.2124619,9.0859375 C62.1597276,9.0859375 60.9673448,9.46191406 60.1079698,10.5146484 L60.1079698,4.82128906 L57.4439073,4.82128906 L57.4439073,20 Z M75.4361861,20.1289062 C71.8482955,20.1289062 70.0650923,17.5615234 70.0650923,14.6933594 C70.0650923,11.8789062 71.7408736,9.12890625 75.2428267,9.12890625 C79.152983,9.12890625 80.302397,11.9003906 80.302397,14.671875 C80.302397,15.1552734 80.2057173,15.4882812 80.2057173,15.4882812 L72.8365767,15.4882812 C73.0191939,16.8095703 73.8570845,17.6904297 75.4147017,17.6904297 C76.5856001,17.6904297 77.3268111,17.4970703 78.1002486,16.7021484 L79.9049361,18.28125 C78.6481001,19.6240234 77.2193892,20.1289062 75.4361861,20.1289062 Z M72.8365767,13.5976562 L77.724272,13.5976562 C77.552397,12.1474609 76.8004439,11.3310547 75.2428267,11.3310547 C73.7818892,11.3310547 73.0621626,12.2978516 72.8365767,13.5976562 Z M93.8894937,20.2148438 C95.909025,20.2148438 98.0682046,19.1191406 98.0682046,16.6376953 C98.0682046,12.6953125 92.6111734,13.6621094 92.6111734,12.0400391 C92.6111734,11.5351562 93.1375406,11.1806641 93.9969156,11.1806641 C95.1570718,11.1806641 95.7586343,11.8144531 96.1346109,12.4804688 L98.1541421,11.3740234 C97.3377359,9.92382812 95.9305093,9.10742188 94.0828531,9.10742188 C92.0203531,9.10742188 90.0975015,10.1171875 90.0975015,12.3837891 C90.0975015,16.1757812 95.4900796,14.9619141 95.4900796,16.7666016 C95.4900796,17.3359375 94.9637125,18.0449219 93.7498453,18.0449219 C92.3211343,18.0449219 91.7517984,17.0566406 91.4617593,16.2832031 L89.377775,17.2070312 C89.9041421,18.8613281 91.6228921,20.2148438 93.8894937,20.2148438 Z M105.232358,20.2148438 C105.973569,20.2148438 106.768491,20.0429688 107.165952,19.8925781 L107.165952,17.5185547 C106.81146,17.6904297 106.22064,17.9052734 105.672788,17.9052734 C104.985288,17.9052734 104.372983,17.6044922 104.372983,16.5732422 L104.372983,11.6425781 L107.165952,11.6425781 L107.165952,9.26855469 L104.372983,9.26855469 L104.372983,4.73535156 L101.913023,6.60449219 L101.913023,9.26855469 L100.129819,9.26855469 L100.129819,11.6425781 L101.859312,11.6425781 L101.859312,17.0351562 C101.859312,18.9902344 103.116148,20.2148438 105.232358,20.2148438 Z M114.287137,20.2470703 C115.458036,20.2470703 116.618192,19.7529297 117.391629,18.7431641 L117.391629,20 L120.055692,20 L120.055692,9.26855469 L117.391629,9.26855469 L117.391629,14.5429688 C117.391629,17.2070312 116.134794,17.7548828 114.910184,17.7548828 C113.32034,17.7548828 112.965848,16.7666016 112.965848,15.4453125 L112.965848,9.26855469 L110.312528,9.26855469 L110.312528,15.5742188 C110.312528,17.9052734 111.472684,20.2470703 114.287137,20.2470703 Z M124.867307,20 L127.574338,20 L127.574338,11.4599609 L130.077268,11.4599609 L130.077268,9.26855469 L127.574338,9.26855469 L127.574338,7.8828125 C127.574338,7.32421875 127.939572,6.98046875 128.562619,6.98046875 C129.046018,6.98046875 129.40051,7.1953125 129.40051,7.1953125 L130.259885,5.03613281 C129.679807,4.77832031 129.003049,4.59570312 128.337033,4.59570312 C126.489377,4.59570312 124.888791,5.74511719 124.888791,7.82910156 L124.888791,9.29003906 L122.901486,9.29003906 L122.901486,11.4599609 L124.867307,11.4599609 L124.867307,20 Z M133.331265,20 L136.038296,20 L136.038296,11.4599609 L138.541226,11.4599609 L138.541226,9.26855469 L136.038296,9.26855469 L136.038296,7.8828125 C136.038296,7.32421875 136.403531,6.98046875 137.026578,6.98046875 C137.509976,6.98046875 137.864468,7.1953125 137.864468,7.1953125 L138.723843,5.03613281 C138.143765,4.77832031 137.467007,4.59570312 136.800992,4.59570312 C134.953336,4.59570312 133.35275,5.74511719 133.35275,7.82910156 L133.35275,9.29003906 L131.365445,9.29003906 L131.365445,11.4599609 L133.331265,11.4599609 L133.331265,20 Z M142.031552,15.4023438 L144.018857,15.4023438 L144.319638,4.59570312 L141.730771,4.59570312 L142.031552,15.4023438 Z M141.591122,20 L144.459286,20 L144.459286,17.1640625 L141.591122,17.1640625 L141.591122,20 Z" id="like-the-stuff!-copy"></path>
        </g>
    </g>
</svg>