<?xml version="1.0" encoding="UTF-8"?>
<svg width="55px" height="50px" viewBox="0 0 55 50" version="1.1" xmlns="http://www.w3.org/2000/svg" xmlns:xlink="http://www.w3.org/1999/xlink">
    <!-- Generator: Sketch 42 (36781) - http://www.bohemiancoding.com/sketch -->
    <title>Combined Shape</title>
    <desc>Created with Sketch.</desc>
    <defs></defs>
    <g id="Page-1" stroke="none" stroke-width="1" fill="none" fill-rule="evenodd">
        <g id="Artboard-2" transform="translate(-21.000000, -302.000000)" fill="#000000">
            <g id="content-frame">
                <g id="thumbs-up" transform="translate(21.677419, 302.958460)">
                    <path d="M51.4049236,35.0270924 L51.4049236,33.2580474 L48.5490945,33.2580474 L48.5490945,35.0270924 L48.5490945,36.7961375 L51.4049236,36.7961375 L51.4049236,35.0270924 Z M5.71165818,16.9828327 L8.56748727,16.9828327 L8.56748727,19.8133048 L5.71165818,19.8133048 L5.71165818,16.9828327 Z M2.85582909,16.9828327 L5.71165818,16.9828327 L5.71165818,19.8133048 L2.85582909,19.8133048 L2.85582909,16.9828327 Z M0,16.9828327 L2.85582909,16.9828327 L2.85582909,19.8133048 L0,19.8133048 L0,16.9828327 Z M14.2791454,19.8133048 L17.1349745,19.8133048 L17.1349745,22.6437769 L14.2791454,22.6437769 L14.2791454,19.8133048 Z M14.2791454,22.6437769 L17.1349745,22.6437769 L17.1349745,25.474249 L14.2791454,25.474249 L14.2791454,22.6437769 Z M14.2791454,25.474249 L17.1349745,25.474249 L17.1349745,28.3047212 L14.2791454,28.3047212 L14.2791454,25.474249 Z M14.2791454,28.3047212 L17.1349745,28.3047212 L17.1349745,31.1351933 L14.2791454,31.1351933 L14.2791454,28.3047212 Z M14.2791454,31.1351933 L17.1349745,31.1351933 L17.1349745,33.9656654 L14.2791454,33.9656654 L14.2791454,31.1351933 Z M14.2791454,33.9656654 L17.1349745,33.9656654 L17.1349745,36.7961375 L14.2791454,36.7961375 L14.2791454,33.9656654 Z M14.2791454,36.7961375 L17.1349745,36.7961375 L17.1349745,39.6266096 L14.2791454,39.6266096 L14.2791454,36.7961375 Z M14.2791454,39.6266096 L17.1349745,39.6266096 L17.1349745,42.4570817 L14.2791454,42.4570817 L14.2791454,39.6266096 Z M17.1349745,39.6266096 L19.9908036,39.6266096 L19.9908036,42.4570817 L17.1349745,42.4570817 L17.1349745,39.6266096 Z M19.9908036,42.4570817 L22.8466327,42.4570817 L22.8466327,45.2875539 L19.9908036,45.2875539 L19.9908036,42.4570817 Z M22.8466327,42.4570817 L25.7024618,42.4570817 L25.7024618,45.2875539 L22.8466327,45.2875539 L22.8466327,42.4570817 Z M25.7024618,42.4570817 L28.5582909,42.4570817 L28.5582909,45.2875539 L25.7024618,45.2875539 L25.7024618,42.4570817 Z M28.5582909,45.2875539 L31.41412,45.2875539 L31.41412,48.118026 L28.5582909,48.118026 L28.5582909,45.2875539 Z M31.41412,45.2875539 L34.2699491,45.2875539 L34.2699491,48.118026 L31.41412,48.118026 L31.41412,45.2875539 Z M34.2699491,45.2875539 L37.1257782,45.2875539 L37.1257782,48.118026 L34.2699491,48.118026 L34.2699491,45.2875539 Z M37.1257782,45.2875539 L39.9816072,45.2875539 L39.9816072,48.118026 L37.1257782,48.118026 L37.1257782,45.2875539 Z M39.9816072,45.2875539 L42.8374363,45.2875539 L42.8374363,48.118026 L39.9816072,48.118026 L39.9816072,45.2875539 Z M42.8374363,45.2875539 L45.6932654,45.2875539 L45.6932654,48.118026 L42.8374363,48.118026 L42.8374363,45.2875539 Z M45.6932654,42.4570817 L48.5490945,42.4570817 L48.5490945,45.2875539 L45.6932654,45.2875539 L45.6932654,42.4570817 Z M45.6932654,39.6266096 L48.5490945,39.6266096 L48.5490945,42.4570817 L45.6932654,42.4570817 L45.6932654,39.6266096 Z M48.5490945,36.7961375 L51.4049236,36.7961375 L51.4049236,39.6266096 L48.5490945,39.6266096 L48.5490945,36.7961375 Z M51.4049236,28.3047212 L54.2607527,28.3047212 L54.2607527,31.1351933 L51.4049236,31.1351933 L51.4049236,28.3047212 Z M51.4049236,31.1351933 L54.2607527,31.1351933 L54.2607527,33.9656654 L51.4049236,33.9656654 L51.4049236,31.1351933 Z M51.4049236,25.474249 L54.2607527,25.474249 L54.2607527,28.3047212 L51.4049236,28.3047212 L51.4049236,25.474249 Z M48.5490945,25.474249 L51.4049236,25.474249 L51.4049236,28.3047212 L48.5490945,28.3047212 L48.5490945,25.474249 Z M48.5490945,19.8133048 L51.4049236,19.8133048 L51.4049236,22.6437769 L48.5490945,22.6437769 L48.5490945,19.8133048 Z M48.5490945,22.6437769 L51.4049236,22.6437769 L51.4049236,25.474249 L48.5490945,25.474249 L48.5490945,22.6437769 Z M48.5490945,16.9828327 L51.4049236,16.9828327 L51.4049236,19.8133048 L48.5490945,19.8133048 L48.5490945,16.9828327 Z M45.6932654,16.9828327 L48.5490945,16.9828327 L48.5490945,19.8133048 L45.6932654,19.8133048 L45.6932654,16.9828327 Z M42.8374363,16.9828327 L45.6932654,16.9828327 L45.6932654,19.8133048 L42.8374363,19.8133048 L42.8374363,16.9828327 Z M39.9816072,16.9828327 L42.8374363,16.9828327 L42.8374363,19.8133048 L39.9816072,19.8133048 L39.9816072,16.9828327 Z M37.1257782,16.9828327 L39.9816072,16.9828327 L39.9816072,19.8133048 L37.1257782,19.8133048 L37.1257782,16.9828327 Z M34.2699491,16.9828327 L37.1257782,16.9828327 L37.1257782,19.8133048 L34.2699491,19.8133048 L34.2699491,16.9828327 Z M37.1257782,14.1523606 L39.9816072,14.1523606 L39.9816072,16.9828327 L37.1257782,16.9828327 L37.1257782,14.1523606 Z M39.9816072,11.3218885 L42.8374363,11.3218885 L42.8374363,14.1523606 L39.9816072,14.1523606 L39.9816072,11.3218885 Z M39.9816072,8.49141635 L42.8374363,8.49141635 L42.8374363,11.3218885 L39.9816072,11.3218885 L39.9816072,8.49141635 Z M39.9816072,5.66094423 L42.8374363,5.66094423 L42.8374363,8.49141635 L39.9816072,8.49141635 L39.9816072,5.66094423 Z M39.9816072,2.83047212 L42.8374363,2.83047212 L42.8374363,5.66094423 L39.9816072,5.66094423 L39.9816072,2.83047212 Z M37.1257782,0 L39.9816072,0 L39.9816072,2.83047212 L37.1257782,2.83047212 L37.1257782,0 Z M34.2699491,0 L37.1257782,0 L37.1257782,2.83047212 L34.2699491,2.83047212 L34.2699491,0 Z M31.41412,2.83047212 L34.2699491,2.83047212 L34.2699491,5.66094423 L31.41412,5.66094423 L31.41412,2.83047212 Z M31.41412,5.66094423 L34.2699491,5.66094423 L34.2699491,8.49141635 L31.41412,8.49141635 L31.41412,5.66094423 Z M28.5582909,8.49141635 L31.41412,8.49141635 L31.41412,11.3218885 L28.5582909,11.3218885 L28.5582909,8.49141635 Z M28.5582909,11.3218885 L31.41412,11.3218885 L31.41412,14.1523606 L28.5582909,14.1523606 L28.5582909,11.3218885 Z M25.7024618,14.1523606 L28.5582909,14.1523606 L28.5582909,16.9828327 L25.7024618,16.9828327 L25.7024618,14.1523606 Z M22.8466327,16.9828327 L25.7024618,16.9828327 L25.7024618,19.8133048 L22.8466327,19.8133048 L22.8466327,16.9828327 Z M22.8466327,19.8133048 L25.7024618,19.8133048 L25.7024618,22.6437769 L22.8466327,22.6437769 L22.8466327,19.8133048 Z M19.9908036,19.8133048 L22.8466327,19.8133048 L22.8466327,22.6437769 L19.9908036,22.6437769 L19.9908036,19.8133048 Z M17.1349745,19.8133048 L19.9908036,19.8133048 L19.9908036,22.6437769 L17.1349745,22.6437769 L17.1349745,19.8133048 Z M0,19.8133048 L2.85582909,19.8133048 L2.85582909,22.6437769 L0,22.6437769 L0,19.8133048 Z M0,22.6437769 L2.85582909,22.6437769 L2.85582909,25.474249 L0,25.474249 L0,22.6437769 Z M0,25.474249 L2.85582909,25.474249 L2.85582909,28.3047212 L0,28.3047212 L0,25.474249 Z M0,28.3047212 L2.85582909,28.3047212 L2.85582909,31.1351933 L0,31.1351933 L0,28.3047212 Z M0,31.1351933 L2.85582909,31.1351933 L2.85582909,33.9656654 L0,33.9656654 L0,31.1351933 Z M0,33.9656654 L2.85582909,33.9656654 L2.85582909,36.7961375 L0,36.7961375 L0,33.9656654 Z M0,36.7961375 L2.85582909,36.7961375 L2.85582909,39.6266096 L0,39.6266096 L0,36.7961375 Z M0,39.6266096 L2.85582909,39.6266096 L2.85582909,42.4570817 L0,42.4570817 L0,39.6266096 Z M2.85582909,42.4570817 L5.71165818,42.4570817 L5.71165818,45.2875539 L2.85582909,45.2875539 L2.85582909,42.4570817 Z M5.71165818,42.4570817 L8.56748727,42.4570817 L8.56748727,45.2875539 L5.71165818,45.2875539 L5.71165818,42.4570817 Z M8.56748727,39.6266096 L11.4233164,39.6266096 L11.4233164,42.4570817 L8.56748727,42.4570817 L8.56748727,39.6266096 Z M8.56748727,36.7961375 L11.4233164,36.7961375 L11.4233164,39.6266096 L8.56748727,39.6266096 L8.56748727,36.7961375 Z M8.56748727,33.9656654 L11.4233164,33.9656654 L11.4233164,36.7961375 L8.56748727,36.7961375 L8.56748727,33.9656654 Z M8.56748727,31.1351933 L11.4233164,31.1351933 L11.4233164,33.9656654 L8.56748727,33.9656654 L8.56748727,31.1351933 Z M8.56748727,28.3047212 L11.4233164,28.3047212 L11.4233164,31.1351933 L8.56748727,31.1351933 L8.56748727,28.3047212 Z M8.56748727,25.474249 L11.4233164,25.474249 L11.4233164,28.3047212 L8.56748727,28.3047212 L8.56748727,25.474249 Z M8.56748727,22.6437769 L11.4233164,22.6437769 L11.4233164,25.474249 L8.56748727,25.474249 L8.56748727,22.6437769 Z M8.56748727,19.8133048 L11.4233164,19.8133048 L11.4233164,22.6437769 L8.56748727,22.6437769 L8.56748727,19.8133048 Z" id="Combined-Shape"></path>
                </g>
            </g>
        </g>
    </g>
</svg>