<?xml version="1.0" encoding="UTF-8"?>
<svg width="372px" height="372px" viewBox="0 0 372 372" version="1.1" xmlns="http://www.w3.org/2000/svg" xmlns:xlink="http://www.w3.org/1999/xlink">
    <!-- Generator: Sketch 42 (36781) - http://www.bohemiancoding.com/sketch -->
    <title>Artboard 2</title>
    <desc>Created with Sketch.</desc>
    <defs>
        <rect id="path-1" x="0" y="0" width="367" height="367"></rect>
        <filter x="-50%" y="-50%" width="200%" height="200%" filterUnits="objectBoundingBox" id="filter-3">
            <feOffset dx="4" dy="4" in="SourceAlpha" result="shadowOffsetOuter1"></feOffset>
            <feColorMatrix values="0 0 0 0 0   0 0 0 0 0   0 0 0 0 0  0 0 0 1 0" type="matrix" in="shadowOffsetOuter1"></feColorMatrix>
        </filter>
        <rect id="path-4" x="10.8521505" y="42.422043" width="345.295699" height="241.706989"></rect>
        <filter x="-50%" y="-50%" width="200%" height="200%" filterUnits="objectBoundingBox" id="filter-5">
            <feOffset dx="4" dy="4" in="SourceAlpha" result="shadowOffsetInner1"></feOffset>
            <feComposite in="shadowOffsetInner1" in2="SourceAlpha" operator="arithmetic" k2="-1" k3="1" result="shadowInnerInner1"></feComposite>
            <feColorMatrix values="0 0 0 0 0   0 0 0 0 0   0 0 0 0 0  0 0 0 1 0" type="matrix" in="shadowInnerInner1"></feColorMatrix>
        </filter>
        <linearGradient x1="100%" y1="0%" x2="0%" y2="100%" id="linearGradient-6">
            <stop stop-color="#E372AC" offset="0%"></stop>
            <stop stop-color="#6600FF" offset="97.0882494%"></stop>
        </linearGradient>
    </defs>
    <g id="Page-1" stroke="none" stroke-width="1" fill="none" fill-rule="evenodd">
        <g id="Artboard-2">
            <g id="content-frame">
                <mask id="mask-2" fill="white">
                    <use xlink:href="#path-1"></use>
                </mask>
                <g id="Rectangle">
                    <use fill="black" fill-opacity="1" filter="url(#filter-3)" xlink:href="#path-1"></use>
                    <use fill="#DDDDDD" fill-rule="evenodd" xlink:href="#path-1"></use>
                </g>
                <g id="heart-filled-copy" mask="url(#mask-2)" fill-opacity="0.799999952" fill="#000000">
                    <g transform="translate(306.819892, 311.752688)" id="outline">
                        <path d="M12.1205837,0 L15.1507296,0 L15.1507296,3.12410394 L12.1205837,3.12410394 L12.1205837,0 Z M9.09043779,0 L12.1205837,0 L12.1205837,3.12410394 L9.09043779,3.12410394 L9.09043779,0 Z M6.06029186,0 L9.09043779,0 L9.09043779,3.12410394 L6.06029186,3.12410394 L6.06029186,0 Z M3.03014593,3.12410394 L6.06029186,3.12410394 L6.06029186,6.24820789 L3.03014593,6.24820789 L3.03014593,3.12410394 Z M0,6.24820789 L3.03014593,6.24820789 L3.03014593,9.37231183 L0,9.37231183 L0,6.24820789 Z M0,9.37231183 L3.03014593,9.37231183 L3.03014593,12.4964158 L0,12.4964158 L0,9.37231183 Z M0,12.4964158 L3.03014593,12.4964158 L3.03014593,15.6205197 L0,15.6205197 L0,12.4964158 Z M0,15.6205197 L3.03014593,15.6205197 L3.03014593,18.7446237 L0,18.7446237 L0,15.6205197 Z M3.03014593,18.7446237 L6.06029186,18.7446237 L6.06029186,21.8687276 L3.03014593,21.8687276 L3.03014593,18.7446237 Z M6.06029186,21.8687276 L9.09043779,21.8687276 L9.09043779,24.9928315 L6.06029186,24.9928315 L6.06029186,21.8687276 Z M9.09043779,24.9928315 L12.1205837,24.9928315 L12.1205837,28.1169355 L9.09043779,28.1169355 L9.09043779,24.9928315 Z M12.1205837,28.1169355 L15.1507296,28.1169355 L15.1507296,31.2410394 L12.1205837,31.2410394 L12.1205837,28.1169355 Z M15.1507296,31.2410394 L18.1808756,31.2410394 L18.1808756,34.3651434 L15.1507296,34.3651434 L15.1507296,31.2410394 Z M18.1808756,34.3651434 L21.2110215,34.3651434 L21.2110215,37.4892473 L18.1808756,37.4892473 L18.1808756,34.3651434 Z M21.2110215,34.3651434 L24.2411674,34.3651434 L24.2411674,37.4892473 L21.2110215,37.4892473 L21.2110215,34.3651434 Z M24.2411674,31.2410394 L27.2713134,31.2410394 L27.2713134,34.3651434 L24.2411674,34.3651434 L24.2411674,31.2410394 Z M27.2713134,28.1169355 L30.3014593,28.1169355 L30.3014593,31.2410394 L27.2713134,31.2410394 L27.2713134,28.1169355 Z M30.3014593,24.9928315 L33.3316052,24.9928315 L33.3316052,28.1169355 L30.3014593,28.1169355 L30.3014593,24.9928315 Z M33.3316052,21.8687276 L36.3617512,21.8687276 L36.3617512,24.9928315 L33.3316052,24.9928315 L33.3316052,21.8687276 Z M36.3617512,18.7446237 L39.3918971,18.7446237 L39.3918971,21.8687276 L36.3617512,21.8687276 L36.3617512,18.7446237 Z M39.3918971,15.6205197 L42.422043,15.6205197 L42.422043,18.7446237 L39.3918971,18.7446237 L39.3918971,15.6205197 Z M39.3918971,12.4964158 L42.422043,12.4964158 L42.422043,15.6205197 L39.3918971,15.6205197 L39.3918971,12.4964158 Z M39.3918971,9.37231183 L42.422043,9.37231183 L42.422043,12.4964158 L39.3918971,12.4964158 L39.3918971,9.37231183 Z M39.3918971,6.24820789 L42.422043,6.24820789 L42.422043,9.37231183 L39.3918971,9.37231183 L39.3918971,6.24820789 Z M36.3617512,3.12410394 L39.3918971,3.12410394 L39.3918971,6.24820789 L36.3617512,6.24820789 L36.3617512,3.12410394 Z M33.3316052,0 L36.3617512,0 L36.3617512,3.12410394 L33.3316052,3.12410394 L33.3316052,0 Z M30.3014593,0 L33.3316052,0 L33.3316052,3.12410394 L30.3014593,3.12410394 L30.3014593,0 Z M27.2713134,0 L30.3014593,0 L30.3014593,3.12410394 L27.2713134,3.12410394 L27.2713134,0 Z M24.2411674,3.12410394 L27.2713134,3.12410394 L27.2713134,6.24820789 L24.2411674,6.24820789 L24.2411674,3.12410394 Z M21.2110215,6.24820789 L24.2411674,6.24820789 L24.2411674,9.37231183 L21.2110215,9.37231183 L21.2110215,6.24820789 Z M18.1808756,6.24820789 L21.2110215,6.24820789 L21.2110215,9.37231183 L18.1808756,9.37231183 L18.1808756,6.24820789 Z M15.1507296,3.12410394 L18.1808756,3.12410394 L18.1808756,6.24820789 L15.1507296,6.24820789 L15.1507296,3.12410394 Z"></path>
                    </g>
                </g>
                <g id="picture-frame" mask="url(#mask-2)">
                    <use fill="#F7F7F7" fill-rule="evenodd" xlink:href="#path-4"></use>
                    <use fill="black" fill-opacity="1" filter="url(#filter-5)" xlink:href="#path-4"></use>
                </g>
                <g id="header" mask="url(#mask-2)">
                    <g transform="translate(10.852151, 8.879032)">
                        <rect id="Rectangle-2" fill="url(#linearGradient-6)" x="0" y="0" width="345.295699" height="26.6370968"></rect>
                        <g id="x" stroke-width="1" fill="none" transform="translate(324.990566, 8.324093)">
                            <path d="M-3.01980663e-14,0 L10.1829831,10.5872055" id="Path-2" stroke="#FFFFFF" stroke-width="2.55552"></path>
                            <path d="M1.98951966e-13,0 L10.1829831,10.5872055" id="Path-2-Copy" stroke="#FFFFFF" stroke-width="2.55552" transform="translate(5.091492, 5.293603) scale(-1, 1) translate(-5.091492, -5.293603) "></path>
                        </g>
                    </g>
                </g>
                <g id="thumbs-up" mask="url(#mask-2)" fill="#000000">
                    <g transform="translate(23.677419, 304.958460)">
                        <rect id="Rectangle-3" x="5.71165818" y="16.9828327" width="2.85582909" height="2.83047212"></rect>
                        <rect id="Rectangle-3" x="2.85582909" y="16.9828327" width="2.85582909" height="2.83047212"></rect>
                        <rect id="Rectangle-3" x="0" y="16.9828327" width="2.85582909" height="2.83047212"></rect>
                        <rect id="Rectangle-3-Copy-19" x="14.2791454" y="19.8133048" width="2.85582909" height="2.83047212"></rect>
                        <rect id="Rectangle-3-Copy-20" x="14.2791454" y="22.6437769" width="2.85582909" height="2.83047212"></rect>
                        <rect id="Rectangle-3-Copy-21" x="14.2791454" y="25.474249" width="2.85582909" height="2.83047212"></rect>
                        <rect id="Rectangle-3-Copy-22" x="14.2791454" y="28.3047212" width="2.85582909" height="2.83047212"></rect>
                        <rect id="Rectangle-3-Copy-23" x="14.2791454" y="31.1351933" width="2.85582909" height="2.83047212"></rect>
                        <rect id="Rectangle-3-Copy-24" x="14.2791454" y="33.9656654" width="2.85582909" height="2.83047212"></rect>
                        <rect id="Rectangle-3-Copy-25" x="14.2791454" y="36.7961375" width="2.85582909" height="2.83047212"></rect>
                        <rect id="Rectangle-3-Copy-26" x="14.2791454" y="39.6266096" width="2.85582909" height="2.83047212"></rect>
                        <rect id="Rectangle-3-Copy-27" x="17.1349745" y="39.6266096" width="2.85582909" height="2.83047212"></rect>
                        <rect id="Rectangle-3-Copy-28" x="19.9908036" y="42.4570817" width="2.85582909" height="2.83047212"></rect>
                        <rect id="Rectangle-3-Copy-29" x="22.8466327" y="42.4570817" width="2.85582909" height="2.83047212"></rect>
                        <rect id="Rectangle-3-Copy-30" x="25.7024618" y="42.4570817" width="2.85582909" height="2.83047212"></rect>
                        <rect id="Rectangle-3-Copy-31" x="28.5582909" y="45.2875539" width="2.85582909" height="2.83047212"></rect>
                        <rect id="Rectangle-3-Copy-32" x="31.41412" y="45.2875539" width="2.85582909" height="2.83047212"></rect>
                        <rect id="Rectangle-3-Copy-33" x="34.2699491" y="45.2875539" width="2.85582909" height="2.83047212"></rect>
                        <rect id="Rectangle-3-Copy-34" x="37.1257782" y="45.2875539" width="2.85582909" height="2.83047212"></rect>
                        <rect id="Rectangle-3-Copy-35" x="39.9816072" y="45.2875539" width="2.85582909" height="2.83047212"></rect>
                        <rect id="Rectangle-3-Copy-36" x="42.8374363" y="45.2875539" width="2.85582909" height="2.83047212"></rect>
                        <rect id="Rectangle-3-Copy-37" x="45.6932654" y="42.4570817" width="2.85582909" height="2.83047212"></rect>
                        <rect id="Rectangle-3-Copy-38" x="45.6932654" y="39.6266096" width="2.85582909" height="2.83047212"></rect>
                        <rect id="Rectangle-3-Copy-39" x="48.5490945" y="36.7961375" width="2.85582909" height="2.83047212"></rect>
                        <rect id="Rectangle-3-Copy-43" x="48.5490945" y="33.2580474" width="2.85582909" height="2.83047212"></rect>
                        <rect id="Rectangle-3-Copy-47" x="51.4049236" y="28.3047212" width="2.85582909" height="2.83047212"></rect>
                        <rect id="Rectangle-3-Copy-78" x="51.4049236" y="31.1351933" width="2.85582909" height="2.83047212"></rect>
                        <rect id="Rectangle-3-Copy-48" x="51.4049236" y="25.474249" width="2.85582909" height="2.83047212"></rect>
                        <rect id="Rectangle-3-Copy-51" x="48.5490945" y="33.9656654" width="2.85582909" height="2.83047212"></rect>
                        <rect id="Rectangle-3-Copy-49" x="48.5490945" y="25.474249" width="2.85582909" height="2.83047212"></rect>
                        <rect id="Rectangle-3-Copy-52" x="48.5490945" y="19.8133048" width="2.85582909" height="2.83047212"></rect>
                        <rect id="Rectangle-3-Copy-76" x="48.5490945" y="22.6437769" width="2.85582909" height="2.83047212"></rect>
                        <rect id="Rectangle-3-Copy-53" x="48.5490945" y="16.9828327" width="2.85582909" height="2.83047212"></rect>
                        <rect id="Rectangle-3-Copy-54" x="45.6932654" y="16.9828327" width="2.85582909" height="2.83047212"></rect>
                        <rect id="Rectangle-3-Copy-55" x="42.8374363" y="16.9828327" width="2.85582909" height="2.83047212"></rect>
                        <rect id="Rectangle-3-Copy-56" x="39.9816072" y="16.9828327" width="2.85582909" height="2.83047212"></rect>
                        <rect id="Rectangle-3-Copy-57" x="37.1257782" y="16.9828327" width="2.85582909" height="2.83047212"></rect>
                        <rect id="Rectangle-3-Copy-58" x="34.2699491" y="16.9828327" width="2.85582909" height="2.83047212"></rect>
                        <rect id="Rectangle-3-Copy-59" x="37.1257782" y="14.1523606" width="2.85582909" height="2.83047212"></rect>
                        <rect id="Rectangle-3-Copy-60" x="39.9816072" y="11.3218885" width="2.85582909" height="2.83047212"></rect>
                        <rect id="Rectangle-3-Copy-61" x="39.9816072" y="8.49141635" width="2.85582909" height="2.83047212"></rect>
                        <rect id="Rectangle-3-Copy-62" x="39.9816072" y="5.66094423" width="2.85582909" height="2.83047212"></rect>
                        <rect id="Rectangle-3-Copy-63" x="39.9816072" y="2.83047212" width="2.85582909" height="2.83047212"></rect>
                        <rect id="Rectangle-3-Copy-64" x="37.1257782" y="0" width="2.85582909" height="2.83047212"></rect>
                        <rect id="Rectangle-3-Copy-65" x="34.2699491" y="0" width="2.85582909" height="2.83047212"></rect>
                        <rect id="Rectangle-3-Copy-66" x="31.41412" y="2.83047212" width="2.85582909" height="2.83047212"></rect>
                        <rect id="Rectangle-3-Copy-67" x="31.41412" y="5.66094423" width="2.85582909" height="2.83047212"></rect>
                        <rect id="Rectangle-3-Copy-68" x="28.5582909" y="8.49141635" width="2.85582909" height="2.83047212"></rect>
                        <rect id="Rectangle-3-Copy-69" x="28.5582909" y="11.3218885" width="2.85582909" height="2.83047212"></rect>
                        <rect id="Rectangle-3-Copy-70" x="25.7024618" y="14.1523606" width="2.85582909" height="2.83047212"></rect>
                        <rect id="Rectangle-3-Copy-71" x="22.8466327" y="16.9828327" width="2.85582909" height="2.83047212"></rect>
                        <rect id="Rectangle-3-Copy-75" x="22.8466327" y="19.8133048" width="2.85582909" height="2.83047212"></rect>
                        <rect id="Rectangle-3-Copy-72" x="19.9908036" y="19.8133048" width="2.85582909" height="2.83047212"></rect>
                        <rect id="Rectangle-3-Copy-73" x="17.1349745" y="19.8133048" width="2.85582909" height="2.83047212"></rect>
                        <rect id="Rectangle-3-Copy" x="0" y="19.8133048" width="2.85582909" height="2.83047212"></rect>
                        <rect id="Rectangle-3-Copy-2" x="0" y="22.6437769" width="2.85582909" height="2.83047212"></rect>
                        <rect id="Rectangle-3-Copy-3" x="0" y="25.474249" width="2.85582909" height="2.83047212"></rect>
                        <rect id="Rectangle-3-Copy-4" x="0" y="28.3047212" width="2.85582909" height="2.83047212"></rect>
                        <rect id="Rectangle-3-Copy-5" x="0" y="31.1351933" width="2.85582909" height="2.83047212"></rect>
                        <rect id="Rectangle-3-Copy-6" x="0" y="33.9656654" width="2.85582909" height="2.83047212"></rect>
                        <rect id="Rectangle-3-Copy-7" x="0" y="36.7961375" width="2.85582909" height="2.83047212"></rect>
                        <rect id="Rectangle-3-Copy-8" x="0" y="39.6266096" width="2.85582909" height="2.83047212"></rect>
                        <rect id="Rectangle-3-Copy-9" x="2.85582909" y="42.4570817" width="2.85582909" height="2.83047212"></rect>
                        <rect id="Rectangle-3-Copy-10" x="5.71165818" y="42.4570817" width="2.85582909" height="2.83047212"></rect>
                        <rect id="Rectangle-3-Copy-11" x="8.56748727" y="39.6266096" width="2.85582909" height="2.83047212"></rect>
                        <rect id="Rectangle-3-Copy-12" x="8.56748727" y="36.7961375" width="2.85582909" height="2.83047212"></rect>
                        <rect id="Rectangle-3-Copy-13" x="8.56748727" y="33.9656654" width="2.85582909" height="2.83047212"></rect>
                        <rect id="Rectangle-3-Copy-14" x="8.56748727" y="31.1351933" width="2.85582909" height="2.83047212"></rect>
                        <rect id="Rectangle-3-Copy-15" x="8.56748727" y="28.3047212" width="2.85582909" height="2.83047212"></rect>
                        <rect id="Rectangle-3-Copy-16" x="8.56748727" y="25.474249" width="2.85582909" height="2.83047212"></rect>
                        <rect id="Rectangle-3-Copy-17" x="8.56748727" y="22.6437769" width="2.85582909" height="2.83047212"></rect>
                        <rect id="Rectangle-3-Copy-18" x="8.56748727" y="19.8133048" width="2.85582909" height="2.83047212"></rect>
                    </g>
                </g>
            </g>
            <text id="this-is-a-tweet-lol" font-family="HKGrotesk-Bold, HK Grotesk" font-size="16" font-weight="bold" line-spacing="23" letter-spacing="0.536666691">
                <tspan x="31" y="77" fill="#000000">this is a tweet lol what me haha i only</tspan>
                <tspan x="31" y="100" fill="#000000">like grilled cheese and spinaches </tspan>
                <tspan x="287.074793" y="100" fill="#0000FF">#lol</tspan>
            </text>
            <text id="usern8me-posted:" font-family="HKGrotesk-Bold, HK Grotesk" font-size="13" font-weight="bold" letter-spacing="0.436041534" fill="#FFFFFF">
                <tspan x="23" y="27">usern8me posted:</tspan>
            </text>
        </g>
    </g>
</svg>