<?xml version="1.0" encoding="UTF-8"?>
<svg width="372px" height="372px" viewBox="0 0 372 372" version="1.1" xmlns="http://www.w3.org/2000/svg" xmlns:xlink="http://www.w3.org/1999/xlink">
    <!-- Generator: Sketch 42 (36781) - http://www.bohemiancoding.com/sketch -->
    <title>Artboard 2</title>
    <desc>Created with Sketch.</desc>
    <defs>
        <rect id="path-1" x="0" y="0" width="367" height="367"></rect>
        <filter x="-50%" y="-50%" width="200%" height="200%" filterUnits="objectBoundingBox" id="filter-3">
            <feOffset dx="4" dy="4" in="SourceAlpha" result="shadowOffsetOuter1"></feOffset>
            <feColorMatrix values="0 0 0 0 0   0 0 0 0 0   0 0 0 0 0  0 0 0 1 0" type="matrix" in="shadowOffsetOuter1"></feColorMatrix>
        </filter>
        <rect id="path-4" x="10.8521505" y="42.422043" width="345.295699" height="241.706989"></rect>
        <filter x="-50%" y="-50%" width="200%" height="200%" filterUnits="objectBoundingBox" id="filter-5">
            <feOffset dx="4" dy="4" in="SourceAlpha" result="shadowOffsetInner1"></feOffset>
            <feComposite in="shadowOffsetInner1" in2="SourceAlpha" operator="arithmetic" k2="-1" k3="1" result="shadowInnerInner1"></feComposite>
            <feColorMatrix values="0 0 0 0 0   0 0 0 0 0   0 0 0 0 0  0 0 0 1 0" type="matrix" in="shadowInnerInner1"></feColorMatrix>
        </filter>
        <linearGradient x1="100%" y1="0%" x2="2.91175064%" y2="97.0882494%" id="linearGradient-6">
            <stop stop-color="#E372AC" offset="0%"></stop>
            <stop stop-color="#6600FF" offset="100%"></stop>
        </linearGradient>
    </defs>
    <g id="Page-1" stroke="none" stroke-width="1" fill="none" fill-rule="evenodd">
        <g id="Artboard-2">
            <g id="content-frame">
                <mask id="mask-2" fill="white">
                    <use xlink:href="#path-1"></use>
                </mask>
                <g id="Rectangle">
                    <use fill="black" fill-opacity="1" filter="url(#filter-3)" xlink:href="#path-1"></use>
                    <use fill="#D4BCF7" fill-rule="evenodd" xlink:href="#path-1"></use>
                </g>
                <g id="heart-filled-copy" mask="url(#mask-2)" fill-opacity="0.799999952" fill="#000000">
                    <g transform="translate(302.819892, 311.752688)" id="outline">
                        <path d="M12.1205837,0 L15.1507296,0 L15.1507296,3.12410394 L12.1205837,3.12410394 L12.1205837,0 Z M9.09043779,0 L12.1205837,0 L12.1205837,3.12410394 L9.09043779,3.12410394 L9.09043779,0 Z M6.06029186,0 L9.09043779,0 L9.09043779,3.12410394 L6.06029186,3.12410394 L6.06029186,0 Z M3.03014593,3.12410394 L6.06029186,3.12410394 L6.06029186,6.24820789 L3.03014593,6.24820789 L3.03014593,3.12410394 Z M0,6.24820789 L3.03014593,6.24820789 L3.03014593,9.37231183 L0,9.37231183 L0,6.24820789 Z M0,9.37231183 L3.03014593,9.37231183 L3.03014593,12.4964158 L0,12.4964158 L0,9.37231183 Z M0,12.4964158 L3.03014593,12.4964158 L3.03014593,15.6205197 L0,15.6205197 L0,12.4964158 Z M0,15.6205197 L3.03014593,15.6205197 L3.03014593,18.7446237 L0,18.7446237 L0,15.6205197 Z M3.03014593,18.7446237 L6.06029186,18.7446237 L6.06029186,21.8687276 L3.03014593,21.8687276 L3.03014593,18.7446237 Z M6.06029186,21.8687276 L9.09043779,21.8687276 L9.09043779,24.9928315 L6.06029186,24.9928315 L6.06029186,21.8687276 Z M9.09043779,24.9928315 L12.1205837,24.9928315 L12.1205837,28.1169355 L9.09043779,28.1169355 L9.09043779,24.9928315 Z M12.1205837,28.1169355 L15.1507296,28.1169355 L15.1507296,31.2410394 L12.1205837,31.2410394 L12.1205837,28.1169355 Z M15.1507296,31.2410394 L18.1808756,31.2410394 L18.1808756,34.3651434 L15.1507296,34.3651434 L15.1507296,31.2410394 Z M18.1808756,34.3651434 L21.2110215,34.3651434 L21.2110215,37.4892473 L18.1808756,37.4892473 L18.1808756,34.3651434 Z M21.2110215,34.3651434 L24.2411674,34.3651434 L24.2411674,37.4892473 L21.2110215,37.4892473 L21.2110215,34.3651434 Z M24.2411674,31.2410394 L27.2713134,31.2410394 L27.2713134,34.3651434 L24.2411674,34.3651434 L24.2411674,31.2410394 Z M27.2713134,28.1169355 L30.3014593,28.1169355 L30.3014593,31.2410394 L27.2713134,31.2410394 L27.2713134,28.1169355 Z M30.3014593,24.9928315 L33.3316052,24.9928315 L33.3316052,28.1169355 L30.3014593,28.1169355 L30.3014593,24.9928315 Z M33.3316052,21.8687276 L36.3617512,21.8687276 L36.3617512,24.9928315 L33.3316052,24.9928315 L33.3316052,21.8687276 Z M36.3617512,18.7446237 L39.3918971,18.7446237 L39.3918971,21.8687276 L36.3617512,21.8687276 L36.3617512,18.7446237 Z M39.3918971,15.6205197 L42.422043,15.6205197 L42.422043,18.7446237 L39.3918971,18.7446237 L39.3918971,15.6205197 Z M39.3918971,12.4964158 L42.422043,12.4964158 L42.422043,15.6205197 L39.3918971,15.6205197 L39.3918971,12.4964158 Z M39.3918971,9.37231183 L42.422043,9.37231183 L42.422043,12.4964158 L39.3918971,12.4964158 L39.3918971,9.37231183 Z M39.3918971,6.24820789 L42.422043,6.24820789 L42.422043,9.37231183 L39.3918971,9.37231183 L39.3918971,6.24820789 Z M36.3617512,3.12410394 L39.3918971,3.12410394 L39.3918971,6.24820789 L36.3617512,6.24820789 L36.3617512,3.12410394 Z M33.3316052,0 L36.3617512,0 L36.3617512,3.12410394 L33.3316052,3.12410394 L33.3316052,0 Z M30.3014593,0 L33.3316052,0 L33.3316052,3.12410394 L30.3014593,3.12410394 L30.3014593,0 Z M27.2713134,0 L30.3014593,0 L30.3014593,3.12410394 L27.2713134,3.12410394 L27.2713134,0 Z M24.2411674,3.12410394 L27.2713134,3.12410394 L27.2713134,6.24820789 L24.2411674,6.24820789 L24.2411674,3.12410394 Z M21.2110215,6.24820789 L24.2411674,6.24820789 L24.2411674,9.37231183 L21.2110215,9.37231183 L21.2110215,6.24820789 Z M18.1808756,6.24820789 L21.2110215,6.24820789 L21.2110215,9.37231183 L18.1808756,9.37231183 L18.1808756,6.24820789 Z M15.1507296,3.12410394 L18.1808756,3.12410394 L18.1808756,6.24820789 L15.1507296,6.24820789 L15.1507296,3.12410394 Z"></path>
                    </g>
                </g>
                <g id="picture-frame" mask="url(#mask-2)">
                    <use fill="#F7F7F7" fill-rule="evenodd" xlink:href="#path-4"></use>
                    <use fill="black" fill-opacity="1" filter="url(#filter-5)" xlink:href="#path-4"></use>
                </g>
                <g id="header" mask="url(#mask-2)">
                    <g transform="translate(10.852151, 8.879032)">
                        <rect id="Rectangle-2" fill="url(#linearGradient-6)" x="0" y="0" width="345.295699" height="26.6370968"></rect>
                        <g id="x" stroke-width="1" fill="none" transform="translate(324.990566, 8.324093)">
                            <path d="M-3.01980663e-14,0 L10.1829831,10.5872055" id="Path-2" stroke="#FFFFFF" stroke-width="2.55552"></path>
                            <path d="M1.98951966e-13,0 L10.1829831,10.5872055" id="Path-2-Copy" stroke="#FFFFFF" stroke-width="2.55552" transform="translate(5.091492, 5.293603) scale(-1, 1) translate(-5.091492, -5.293603) "></path>
                        </g>
                    </g>
                </g>
                <g id="thumbs-up" mask="url(#mask-2)" fill="#000000">
                    <g transform="translate(21.677419, 302.958460)" id="Combined-Shape">
                        <path d="M51.4049236,35.0270924 L51.4049236,33.2580474 L48.5490945,33.2580474 L48.5490945,35.0270924 L48.5490945,36.7961375 L51.4049236,36.7961375 L51.4049236,35.0270924 Z M5.71165818,16.9828327 L8.56748727,16.9828327 L8.56748727,19.8133048 L5.71165818,19.8133048 L5.71165818,16.9828327 Z M2.85582909,16.9828327 L5.71165818,16.9828327 L5.71165818,19.8133048 L2.85582909,19.8133048 L2.85582909,16.9828327 Z M0,16.9828327 L2.85582909,16.9828327 L2.85582909,19.8133048 L0,19.8133048 L0,16.9828327 Z M14.2791454,19.8133048 L17.1349745,19.8133048 L17.1349745,22.6437769 L14.2791454,22.6437769 L14.2791454,19.8133048 Z M14.2791454,22.6437769 L17.1349745,22.6437769 L17.1349745,25.474249 L14.2791454,25.474249 L14.2791454,22.6437769 Z M14.2791454,25.474249 L17.1349745,25.474249 L17.1349745,28.3047212 L14.2791454,28.3047212 L14.2791454,25.474249 Z M14.2791454,28.3047212 L17.1349745,28.3047212 L17.1349745,31.1351933 L14.2791454,31.1351933 L14.2791454,28.3047212 Z M14.2791454,31.1351933 L17.1349745,31.1351933 L17.1349745,33.9656654 L14.2791454,33.9656654 L14.2791454,31.1351933 Z M14.2791454,33.9656654 L17.1349745,33.9656654 L17.1349745,36.7961375 L14.2791454,36.7961375 L14.2791454,33.9656654 Z M14.2791454,36.7961375 L17.1349745,36.7961375 L17.1349745,39.6266096 L14.2791454,39.6266096 L14.2791454,36.7961375 Z M14.2791454,39.6266096 L17.1349745,39.6266096 L17.1349745,42.4570817 L14.2791454,42.4570817 L14.2791454,39.6266096 Z M17.1349745,39.6266096 L19.9908036,39.6266096 L19.9908036,42.4570817 L17.1349745,42.4570817 L17.1349745,39.6266096 Z M19.9908036,42.4570817 L22.8466327,42.4570817 L22.8466327,45.2875539 L19.9908036,45.2875539 L19.9908036,42.4570817 Z M22.8466327,42.4570817 L25.7024618,42.4570817 L25.7024618,45.2875539 L22.8466327,45.2875539 L22.8466327,42.4570817 Z M25.7024618,42.4570817 L28.5582909,42.4570817 L28.5582909,45.2875539 L25.7024618,45.2875539 L25.7024618,42.4570817 Z M28.5582909,45.2875539 L31.41412,45.2875539 L31.41412,48.118026 L28.5582909,48.118026 L28.5582909,45.2875539 Z M31.41412,45.2875539 L34.2699491,45.2875539 L34.2699491,48.118026 L31.41412,48.118026 L31.41412,45.2875539 Z M34.2699491,45.2875539 L37.1257782,45.2875539 L37.1257782,48.118026 L34.2699491,48.118026 L34.2699491,45.2875539 Z M37.1257782,45.2875539 L39.9816072,45.2875539 L39.9816072,48.118026 L37.1257782,48.118026 L37.1257782,45.2875539 Z M39.9816072,45.2875539 L42.8374363,45.2875539 L42.8374363,48.118026 L39.9816072,48.118026 L39.9816072,45.2875539 Z M42.8374363,45.2875539 L45.6932654,45.2875539 L45.6932654,48.118026 L42.8374363,48.118026 L42.8374363,45.2875539 Z M45.6932654,42.4570817 L48.5490945,42.4570817 L48.5490945,45.2875539 L45.6932654,45.2875539 L45.6932654,42.4570817 Z M45.6932654,39.6266096 L48.5490945,39.6266096 L48.5490945,42.4570817 L45.6932654,42.4570817 L45.6932654,39.6266096 Z M48.5490945,36.7961375 L51.4049236,36.7961375 L51.4049236,39.6266096 L48.5490945,39.6266096 L48.5490945,36.7961375 Z M51.4049236,28.3047212 L54.2607527,28.3047212 L54.2607527,31.1351933 L51.4049236,31.1351933 L51.4049236,28.3047212 Z M51.4049236,31.1351933 L54.2607527,31.1351933 L54.2607527,33.9656654 L51.4049236,33.9656654 L51.4049236,31.1351933 Z M51.4049236,25.474249 L54.2607527,25.474249 L54.2607527,28.3047212 L51.4049236,28.3047212 L51.4049236,25.474249 Z M48.5490945,25.474249 L51.4049236,25.474249 L51.4049236,28.3047212 L48.5490945,28.3047212 L48.5490945,25.474249 Z M48.5490945,19.8133048 L51.4049236,19.8133048 L51.4049236,22.6437769 L48.5490945,22.6437769 L48.5490945,19.8133048 Z M48.5490945,22.6437769 L51.4049236,22.6437769 L51.4049236,25.474249 L48.5490945,25.474249 L48.5490945,22.6437769 Z M48.5490945,16.9828327 L51.4049236,16.9828327 L51.4049236,19.8133048 L48.5490945,19.8133048 L48.5490945,16.9828327 Z M45.6932654,16.9828327 L48.5490945,16.9828327 L48.5490945,19.8133048 L45.6932654,19.8133048 L45.6932654,16.9828327 Z M42.8374363,16.9828327 L45.6932654,16.9828327 L45.6932654,19.8133048 L42.8374363,19.8133048 L42.8374363,16.9828327 Z M39.9816072,16.9828327 L42.8374363,16.9828327 L42.8374363,19.8133048 L39.9816072,19.8133048 L39.9816072,16.9828327 Z M37.1257782,16.9828327 L39.9816072,16.9828327 L39.9816072,19.8133048 L37.1257782,19.8133048 L37.1257782,16.9828327 Z M34.2699491,16.9828327 L37.1257782,16.9828327 L37.1257782,19.8133048 L34.2699491,19.8133048 L34.2699491,16.9828327 Z M37.1257782,14.1523606 L39.9816072,14.1523606 L39.9816072,16.9828327 L37.1257782,16.9828327 L37.1257782,14.1523606 Z M39.9816072,11.3218885 L42.8374363,11.3218885 L42.8374363,14.1523606 L39.9816072,14.1523606 L39.9816072,11.3218885 Z M39.9816072,8.49141635 L42.8374363,8.49141635 L42.8374363,11.3218885 L39.9816072,11.3218885 L39.9816072,8.49141635 Z M39.9816072,5.66094423 L42.8374363,5.66094423 L42.8374363,8.49141635 L39.9816072,8.49141635 L39.9816072,5.66094423 Z M39.9816072,2.83047212 L42.8374363,2.83047212 L42.8374363,5.66094423 L39.9816072,5.66094423 L39.9816072,2.83047212 Z M37.1257782,0 L39.9816072,0 L39.9816072,2.83047212 L37.1257782,2.83047212 L37.1257782,0 Z M34.2699491,0 L37.1257782,0 L37.1257782,2.83047212 L34.2699491,2.83047212 L34.2699491,0 Z M31.41412,2.83047212 L34.2699491,2.83047212 L34.2699491,5.66094423 L31.41412,5.66094423 L31.41412,2.83047212 Z M31.41412,5.66094423 L34.2699491,5.66094423 L34.2699491,8.49141635 L31.41412,8.49141635 L31.41412,5.66094423 Z M28.5582909,8.49141635 L31.41412,8.49141635 L31.41412,11.3218885 L28.5582909,11.3218885 L28.5582909,8.49141635 Z M28.5582909,11.3218885 L31.41412,11.3218885 L31.41412,14.1523606 L28.5582909,14.1523606 L28.5582909,11.3218885 Z M25.7024618,14.1523606 L28.5582909,14.1523606 L28.5582909,16.9828327 L25.7024618,16.9828327 L25.7024618,14.1523606 Z M22.8466327,16.9828327 L25.7024618,16.9828327 L25.7024618,19.8133048 L22.8466327,19.8133048 L22.8466327,16.9828327 Z M22.8466327,19.8133048 L25.7024618,19.8133048 L25.7024618,22.6437769 L22.8466327,22.6437769 L22.8466327,19.8133048 Z M19.9908036,19.8133048 L22.8466327,19.8133048 L22.8466327,22.6437769 L19.9908036,22.6437769 L19.9908036,19.8133048 Z M17.1349745,19.8133048 L19.9908036,19.8133048 L19.9908036,22.6437769 L17.1349745,22.6437769 L17.1349745,19.8133048 Z M0,19.8133048 L2.85582909,19.8133048 L2.85582909,22.6437769 L0,22.6437769 L0,19.8133048 Z M0,22.6437769 L2.85582909,22.6437769 L2.85582909,25.474249 L0,25.474249 L0,22.6437769 Z M0,25.474249 L2.85582909,25.474249 L2.85582909,28.3047212 L0,28.3047212 L0,25.474249 Z M0,28.3047212 L2.85582909,28.3047212 L2.85582909,31.1351933 L0,31.1351933 L0,28.3047212 Z M0,31.1351933 L2.85582909,31.1351933 L2.85582909,33.9656654 L0,33.9656654 L0,31.1351933 Z M0,33.9656654 L2.85582909,33.9656654 L2.85582909,36.7961375 L0,36.7961375 L0,33.9656654 Z M0,36.7961375 L2.85582909,36.7961375 L2.85582909,39.6266096 L0,39.6266096 L0,36.7961375 Z M0,39.6266096 L2.85582909,39.6266096 L2.85582909,42.4570817 L0,42.4570817 L0,39.6266096 Z M2.85582909,42.4570817 L5.71165818,42.4570817 L5.71165818,45.2875539 L2.85582909,45.2875539 L2.85582909,42.4570817 Z M5.71165818,42.4570817 L8.56748727,42.4570817 L8.56748727,45.2875539 L5.71165818,45.2875539 L5.71165818,42.4570817 Z M8.56748727,39.6266096 L11.4233164,39.6266096 L11.4233164,42.4570817 L8.56748727,42.4570817 L8.56748727,39.6266096 Z M8.56748727,36.7961375 L11.4233164,36.7961375 L11.4233164,39.6266096 L8.56748727,39.6266096 L8.56748727,36.7961375 Z M8.56748727,33.9656654 L11.4233164,33.9656654 L11.4233164,36.7961375 L8.56748727,36.7961375 L8.56748727,33.9656654 Z M8.56748727,31.1351933 L11.4233164,31.1351933 L11.4233164,33.9656654 L8.56748727,33.9656654 L8.56748727,31.1351933 Z M8.56748727,28.3047212 L11.4233164,28.3047212 L11.4233164,31.1351933 L8.56748727,31.1351933 L8.56748727,28.3047212 Z M8.56748727,25.474249 L11.4233164,25.474249 L11.4233164,28.3047212 L8.56748727,28.3047212 L8.56748727,25.474249 Z M8.56748727,22.6437769 L11.4233164,22.6437769 L11.4233164,25.474249 L8.56748727,25.474249 L8.56748727,22.6437769 Z M8.56748727,19.8133048 L11.4233164,19.8133048 L11.4233164,22.6437769 L8.56748727,22.6437769 L8.56748727,19.8133048 Z"></path>
                    </g>
                </g>
            </g>
            <text id="usern8me-posted:" font-family="HKGrotesk-Bold, HK Grotesk" font-size="13" font-weight="bold" letter-spacing="0.436041534" fill="#FFFFFF">
                <tspan x="23" y="27">usern8me posted:</tspan>
            </text>
        </g>
    </g>
</svg>